<mxfile host="app.diagrams.net" modified="2021-09-19T17:38:02.751Z" agent="5.0 (Windows NT 10.0; Win64; x64) AppleWebKit/537.36 (KHTML, like Gecko) Chrome/93.0.4577.82 Safari/537.36" etag="13wFTVbHZJtCkgNzyO6y" version="15.2.9" type="github">
  <diagram name="Page-1" id="0783ab3e-0a74-02c8-0abd-f7b4e66b4bec">
    <mxGraphModel dx="1483" dy="2981" grid="1" gridSize="10" guides="1" tooltips="1" connect="1" arrows="1" fold="1" page="1" pageScale="1" pageWidth="850" pageHeight="1100" background="none" math="0" shadow="0">
      <root>
        <mxCell id="0" />
        <mxCell id="1" parent="0" />
        <mxCell id="kGXu7CgJESCBYVdFByHm-2" value="" style="ellipse;html=1;shape=startState;fillColor=#000000;strokeColor=#ff0000;labelBackgroundColor=#ffffff;fontSize=14;verticalAlign=top;" vertex="1" parent="1">
          <mxGeometry x="395" y="-2160" width="30" height="30" as="geometry" />
        </mxCell>
        <mxCell id="kGXu7CgJESCBYVdFByHm-3" value="" style="edgeStyle=orthogonalEdgeStyle;html=1;verticalAlign=bottom;endArrow=open;endSize=8;strokeColor=#ff0000;fontSize=14;" edge="1" source="kGXu7CgJESCBYVdFByHm-2" parent="1">
          <mxGeometry relative="1" as="geometry">
            <mxPoint x="410" y="-2070" as="targetPoint" />
          </mxGeometry>
        </mxCell>
      </root>
    </mxGraphModel>
  </diagram>
</mxfile>
